<mxfile host="app.diagrams.net" modified="2023-07-24T05:13:16.335Z" agent="Mozilla/5.0 (Macintosh; Intel Mac OS X 10_15_7) AppleWebKit/537.36 (KHTML, like Gecko) Chrome/112.0.0.0 Safari/537.36" etag="uhsCt76Y5sfuDs4iY3j7" version="21.6.5" type="device">
  <diagram name="Page-1" id="h3hb4T92wC4LCY1ifoIB">
    <mxGraphModel dx="954" dy="620" grid="1" gridSize="10" guides="1" tooltips="1" connect="1" arrows="1" fold="1" page="1" pageScale="1" pageWidth="827" pageHeight="1169" math="0" shadow="0">
      <root>
        <mxCell id="0" />
        <mxCell id="1" parent="0" />
        <mxCell id="snBD3ZfTyoc-V8AvG5Zh-1" value="" style="rounded=0;whiteSpace=wrap;html=1;dashed=1;dashPattern=8 8;fillColor=#ffe6cc;strokeColor=#d79b00;" vertex="1" parent="1">
          <mxGeometry x="599" y="300" width="247" height="320" as="geometry" />
        </mxCell>
        <mxCell id="snBD3ZfTyoc-V8AvG5Zh-2" value="" style="rounded=0;whiteSpace=wrap;html=1;dashed=1;dashPattern=8 8;fillColor=#dae8fc;strokeColor=#6c8ebf;" vertex="1" parent="1">
          <mxGeometry x="344" y="387" width="246" height="310" as="geometry" />
        </mxCell>
        <mxCell id="snBD3ZfTyoc-V8AvG5Zh-3" value="" style="rounded=0;whiteSpace=wrap;html=1;fillColor=#fff2cc;strokeColor=#d6b656;" vertex="1" parent="1">
          <mxGeometry x="10" y="370" width="250" height="120" as="geometry" />
        </mxCell>
        <mxCell id="snBD3ZfTyoc-V8AvG5Zh-4" value="Confluence Page1" style="shape=note;whiteSpace=wrap;html=1;backgroundOutline=1;darkOpacity=0.05;fillColor=#d5e8d4;strokeColor=#82b366;" vertex="1" parent="1">
          <mxGeometry x="30" y="30" width="80" height="60" as="geometry" />
        </mxCell>
        <mxCell id="snBD3ZfTyoc-V8AvG5Zh-5" value="" style="shape=flexArrow;endArrow=classic;html=1;rounded=0;" edge="1" parent="1">
          <mxGeometry width="50" height="50" relative="1" as="geometry">
            <mxPoint x="89.5" y="330" as="sourcePoint" />
            <mxPoint x="90" y="370" as="targetPoint" />
          </mxGeometry>
        </mxCell>
        <mxCell id="snBD3ZfTyoc-V8AvG5Zh-6" value="" style="shape=cube;whiteSpace=wrap;html=1;boundedLbl=1;backgroundOutline=1;darkOpacity=0.05;darkOpacity2=0.1;rotation=90;" vertex="1" parent="1">
          <mxGeometry x="140" y="380" width="100" height="100" as="geometry" />
        </mxCell>
        <mxCell id="snBD3ZfTyoc-V8AvG5Zh-7" value="" style="shape=cube;whiteSpace=wrap;html=1;boundedLbl=1;backgroundOutline=1;darkOpacity=0.05;darkOpacity2=0.1;rotation=90;" vertex="1" parent="1">
          <mxGeometry x="20" y="380" width="100" height="100" as="geometry" />
        </mxCell>
        <mxCell id="snBD3ZfTyoc-V8AvG5Zh-8" value="" style="shape=flexArrow;endArrow=classic;html=1;rounded=0;" edge="1" parent="1">
          <mxGeometry width="50" height="50" relative="1" as="geometry">
            <mxPoint x="44.71" y="481" as="sourcePoint" />
            <mxPoint x="45.12" y="531" as="targetPoint" />
          </mxGeometry>
        </mxCell>
        <mxCell id="snBD3ZfTyoc-V8AvG5Zh-9" value="" style="shape=flexArrow;endArrow=classic;html=1;rounded=0;exitX=1;exitY=1;exitDx=0;exitDy=0;exitPerimeter=0;" edge="1" parent="1" source="snBD3ZfTyoc-V8AvG5Zh-6">
          <mxGeometry width="50" height="50" relative="1" as="geometry">
            <mxPoint x="108.28999999999999" y="481" as="sourcePoint" />
            <mxPoint x="108.69999999999999" y="531" as="targetPoint" />
          </mxGeometry>
        </mxCell>
        <mxCell id="snBD3ZfTyoc-V8AvG5Zh-10" value="" style="shape=datastore;whiteSpace=wrap;html=1;shadow=1;fillStyle=auto;fillColor=#f9f7ed;strokeColor=#36393d;" vertex="1" parent="1">
          <mxGeometry x="25" y="530" width="105" height="170" as="geometry" />
        </mxCell>
        <mxCell id="snBD3ZfTyoc-V8AvG5Zh-11" value="Confluence Page1" style="shape=note;whiteSpace=wrap;html=1;backgroundOutline=1;darkOpacity=0.05;fillColor=#d5e8d4;strokeColor=#82b366;" vertex="1" parent="1">
          <mxGeometry x="40" y="40" width="80" height="60" as="geometry" />
        </mxCell>
        <mxCell id="snBD3ZfTyoc-V8AvG5Zh-12" value="Confluence Page1" style="shape=note;whiteSpace=wrap;html=1;backgroundOutline=1;darkOpacity=0.05;fillColor=#d5e8d4;strokeColor=#82b366;" vertex="1" parent="1">
          <mxGeometry x="50" y="50" width="80" height="60" as="geometry" />
        </mxCell>
        <mxCell id="snBD3ZfTyoc-V8AvG5Zh-13" value="Fixed Length&amp;nbsp;&lt;br&gt;Contexts" style="shape=note;whiteSpace=wrap;html=1;backgroundOutline=1;darkOpacity=0.05;fillColor=#cdeb8b;strokeColor=#36393d;" vertex="1" parent="1">
          <mxGeometry x="40" y="250" width="80" height="60" as="geometry" />
        </mxCell>
        <mxCell id="snBD3ZfTyoc-V8AvG5Zh-14" value="Fixed Length&amp;nbsp;&lt;br&gt;Contexts" style="shape=note;whiteSpace=wrap;html=1;backgroundOutline=1;darkOpacity=0.05;fillColor=#cdeb8b;strokeColor=#36393d;" vertex="1" parent="1">
          <mxGeometry x="50" y="260" width="80" height="60" as="geometry" />
        </mxCell>
        <mxCell id="snBD3ZfTyoc-V8AvG5Zh-15" value="Fixed Length&amp;nbsp;&lt;br&gt;Contexts" style="shape=note;whiteSpace=wrap;html=1;backgroundOutline=1;darkOpacity=0.05;fillColor=#cdeb8b;strokeColor=#36393d;" vertex="1" parent="1">
          <mxGeometry x="60" y="270" width="80" height="60" as="geometry" />
        </mxCell>
        <mxCell id="snBD3ZfTyoc-V8AvG5Zh-16" value="Text Cleaner&lt;br&gt;&amp;amp;&lt;br&gt;Context Splitter" style="rounded=0;whiteSpace=wrap;html=1;" vertex="1" parent="1">
          <mxGeometry x="37.5" y="160" width="92.5" height="40" as="geometry" />
        </mxCell>
        <mxCell id="snBD3ZfTyoc-V8AvG5Zh-17" value="" style="shape=flexArrow;endArrow=classic;html=1;rounded=0;" edge="1" parent="1">
          <mxGeometry width="50" height="50" relative="1" as="geometry">
            <mxPoint x="84.5" y="110" as="sourcePoint" />
            <mxPoint x="84.91" y="160" as="targetPoint" />
          </mxGeometry>
        </mxCell>
        <mxCell id="snBD3ZfTyoc-V8AvG5Zh-18" value="" style="shape=flexArrow;endArrow=classic;html=1;rounded=0;" edge="1" parent="1">
          <mxGeometry width="50" height="50" relative="1" as="geometry">
            <mxPoint x="83.25" y="200" as="sourcePoint" />
            <mxPoint x="83.66" y="250" as="targetPoint" />
          </mxGeometry>
        </mxCell>
        <mxCell id="snBD3ZfTyoc-V8AvG5Zh-19" value="Splade Vectors" style="text;html=1;align=center;verticalAlign=middle;resizable=0;points=[];autosize=1;strokeColor=none;fillColor=none;fontSize=18;" vertex="1" parent="1">
          <mxGeometry x="10" y="601" width="140" height="40" as="geometry" />
        </mxCell>
        <mxCell id="snBD3ZfTyoc-V8AvG5Zh-20" value="" style="endArrow=classic;html=1;rounded=0;entryX=0.939;entryY=-0.025;entryDx=0;entryDy=0;entryPerimeter=0;" edge="1" parent="1" target="snBD3ZfTyoc-V8AvG5Zh-19">
          <mxGeometry width="50" height="50" relative="1" as="geometry">
            <mxPoint x="20" y="601" as="sourcePoint" />
            <mxPoint x="140" y="587" as="targetPoint" />
          </mxGeometry>
        </mxCell>
        <mxCell id="snBD3ZfTyoc-V8AvG5Zh-21" value="Dense Vectors" style="text;html=1;align=center;verticalAlign=middle;resizable=0;points=[];autosize=1;strokeColor=none;fillColor=none;fontSize=18;" vertex="1" parent="1">
          <mxGeometry x="10" y="642" width="140" height="40" as="geometry" />
        </mxCell>
        <mxCell id="snBD3ZfTyoc-V8AvG5Zh-22" value="" style="endArrow=classic;html=1;rounded=0;entryX=0.939;entryY=-0.025;entryDx=0;entryDy=0;entryPerimeter=0;" edge="1" parent="1" target="snBD3ZfTyoc-V8AvG5Zh-21">
          <mxGeometry width="50" height="50" relative="1" as="geometry">
            <mxPoint x="20" y="642" as="sourcePoint" />
            <mxPoint x="140" y="628" as="targetPoint" />
          </mxGeometry>
        </mxCell>
        <mxCell id="snBD3ZfTyoc-V8AvG5Zh-23" value="&lt;b style=&quot;font-size: 15px;&quot;&gt;This stores embeddings&lt;br&gt;for all the fetched confluence pages&amp;nbsp;&lt;/b&gt;" style="text;html=1;strokeColor=none;fillColor=none;align=center;verticalAlign=middle;whiteSpace=wrap;rounded=0;" vertex="1" parent="1">
          <mxGeometry x="2.5" y="700" width="162.5" height="80" as="geometry" />
        </mxCell>
        <mxCell id="snBD3ZfTyoc-V8AvG5Zh-24" value="" style="edgeStyle=none;orthogonalLoop=1;jettySize=auto;html=1;shape=flexArrow;rounded=1;startSize=8;endSize=8;entryX=0;entryY=0;entryDx=0;entryDy=21.60708831721044;entryPerimeter=0;fillColor=#1ba1e2;strokeColor=#006EAF;" edge="1" parent="1">
          <mxGeometry width="100" relative="1" as="geometry">
            <mxPoint x="566" y="280" as="sourcePoint" />
            <mxPoint x="676" y="421.60708831721047" as="targetPoint" />
            <Array as="points">
              <mxPoint x="566" y="425" />
            </Array>
          </mxGeometry>
        </mxCell>
        <mxCell id="snBD3ZfTyoc-V8AvG5Zh-25" value="Question" style="edgeLabel;html=1;align=center;verticalAlign=middle;resizable=0;points=[];" vertex="1" connectable="0" parent="snBD3ZfTyoc-V8AvG5Zh-24">
          <mxGeometry x="0.4913" relative="1" as="geometry">
            <mxPoint as="offset" />
          </mxGeometry>
        </mxCell>
        <mxCell id="snBD3ZfTyoc-V8AvG5Zh-26" value="Input Query" style="text;strokeColor=none;fillColor=none;html=1;fontSize=15;fontStyle=1;verticalAlign=middle;align=center;" vertex="1" parent="1">
          <mxGeometry x="526" y="250" width="90" height="40" as="geometry" />
        </mxCell>
        <mxCell id="snBD3ZfTyoc-V8AvG5Zh-27" value="" style="edgeStyle=none;orthogonalLoop=1;jettySize=auto;html=1;shape=flexArrow;rounded=1;startSize=8;endSize=8;entryX=1.007;entryY=0.319;entryDx=0;entryDy=0;entryPerimeter=0;fillColor=#1ba1e2;strokeColor=#006EAF;" edge="1" parent="1" target="snBD3ZfTyoc-V8AvG5Zh-28">
          <mxGeometry width="100" relative="1" as="geometry">
            <mxPoint x="566" y="280" as="sourcePoint" />
            <mxPoint x="506" y="475" as="targetPoint" />
            <Array as="points">
              <mxPoint x="566" y="500" />
            </Array>
          </mxGeometry>
        </mxCell>
        <mxCell id="snBD3ZfTyoc-V8AvG5Zh-28" value="Context Search" style="shape=cube;whiteSpace=wrap;html=1;boundedLbl=1;backgroundOutline=1;darkOpacity=0.05;darkOpacity2=0.1;" vertex="1" parent="1">
          <mxGeometry x="356" y="470" width="120" height="100" as="geometry" />
        </mxCell>
        <mxCell id="snBD3ZfTyoc-V8AvG5Zh-29" value="" style="endArrow=classic;html=1;rounded=0;dashed=1;jumpSize=10;opacity=50;" edge="1" parent="1">
          <mxGeometry width="50" height="50" relative="1" as="geometry">
            <mxPoint x="130" y="560" as="sourcePoint" />
            <mxPoint x="350" y="510" as="targetPoint" />
          </mxGeometry>
        </mxCell>
        <mxCell id="snBD3ZfTyoc-V8AvG5Zh-30" value="" style="endArrow=classic;html=1;rounded=0;dashed=1;jumpSize=10;opacity=50;exitX=1;exitY=0.3;exitDx=0;exitDy=0;" edge="1" parent="1" source="snBD3ZfTyoc-V8AvG5Zh-10">
          <mxGeometry width="50" height="50" relative="1" as="geometry">
            <mxPoint x="140" y="590" as="sourcePoint" />
            <mxPoint x="350" y="520" as="targetPoint" />
          </mxGeometry>
        </mxCell>
        <mxCell id="snBD3ZfTyoc-V8AvG5Zh-31" value="" style="endArrow=classic;html=1;rounded=0;dashed=1;jumpSize=10;opacity=50;" edge="1" parent="1">
          <mxGeometry width="50" height="50" relative="1" as="geometry">
            <mxPoint x="140" y="591" as="sourcePoint" />
            <mxPoint x="350" y="530" as="targetPoint" />
          </mxGeometry>
        </mxCell>
        <mxCell id="snBD3ZfTyoc-V8AvG5Zh-32" value="" style="endArrow=classic;html=1;rounded=0;dashed=1;jumpSize=10;opacity=50;" edge="1" parent="1">
          <mxGeometry width="50" height="50" relative="1" as="geometry">
            <mxPoint x="140" y="682" as="sourcePoint" />
            <mxPoint x="350" y="540" as="targetPoint" />
          </mxGeometry>
        </mxCell>
        <mxCell id="snBD3ZfTyoc-V8AvG5Zh-33" value="" style="endArrow=classic;html=1;rounded=0;" edge="1" parent="1">
          <mxGeometry width="50" height="50" relative="1" as="geometry">
            <mxPoint x="415.57" y="570" as="sourcePoint" />
            <mxPoint x="416" y="610" as="targetPoint" />
          </mxGeometry>
        </mxCell>
        <mxCell id="snBD3ZfTyoc-V8AvG5Zh-34" value="Hybrid Encoder" style="text;html=1;strokeColor=none;fillColor=none;align=center;verticalAlign=middle;whiteSpace=wrap;rounded=0;" vertex="1" parent="1">
          <mxGeometry x="260" y="370" width="60" height="30" as="geometry" />
        </mxCell>
        <mxCell id="snBD3ZfTyoc-V8AvG5Zh-35" value="Hybrid Encoder" style="rounded=0;whiteSpace=wrap;html=1;fillColor=#fff2cc;strokeColor=#d6b656;fillStyle=solid;" vertex="1" parent="1">
          <mxGeometry x="520" y="450" width="70" height="30" as="geometry" />
        </mxCell>
        <mxCell id="snBD3ZfTyoc-V8AvG5Zh-36" value="Top K &lt;br&gt;contexts" style="strokeWidth=2;html=1;shape=mxgraph.flowchart.multi-document;whiteSpace=wrap;fillColor=#ffff88;strokeColor=#36393d;" vertex="1" parent="1">
          <mxGeometry x="372" y="610" width="88" height="60" as="geometry" />
        </mxCell>
        <mxCell id="snBD3ZfTyoc-V8AvG5Zh-37" value="" style="edgeStyle=none;orthogonalLoop=1;jettySize=auto;html=1;shape=flexArrow;rounded=1;startSize=8;endSize=8;entryX=-0.024;entryY=0.632;entryDx=0;entryDy=0;entryPerimeter=0;fillColor=#d80073;strokeColor=#A50040;" edge="1" parent="1">
          <mxGeometry width="100" relative="1" as="geometry">
            <mxPoint x="460" y="639.57" as="sourcePoint" />
            <mxPoint x="673.8399999999999" y="475.8399999999999" as="targetPoint" />
            <Array as="points">
              <mxPoint x="620" y="640" />
              <mxPoint x="620" y="476" />
            </Array>
          </mxGeometry>
        </mxCell>
        <mxCell id="snBD3ZfTyoc-V8AvG5Zh-38" value="Context" style="edgeLabel;html=1;align=center;verticalAlign=middle;resizable=0;points=[];" vertex="1" connectable="0" parent="snBD3ZfTyoc-V8AvG5Zh-37">
          <mxGeometry x="0.237" y="-3" relative="1" as="geometry">
            <mxPoint as="offset" />
          </mxGeometry>
        </mxCell>
        <mxCell id="snBD3ZfTyoc-V8AvG5Zh-39" value="&lt;b&gt;&lt;font color=&quot;#3333ff&quot;&gt;&lt;br&gt;&lt;br&gt;&lt;br&gt;Google&lt;br style=&quot;border-color: var(--border-color);&quot;&gt;FLAN T5 Large&lt;br style=&quot;border-color: var(--border-color);&quot;&gt;(QA Model)&lt;/font&gt;&lt;/b&gt;" style="html=1;whiteSpace=wrap;shape=isoCube2;backgroundOutline=1;isoAngle=15;" vertex="1" parent="1">
          <mxGeometry x="677" y="387" width="90" height="120" as="geometry" />
        </mxCell>
        <mxCell id="snBD3ZfTyoc-V8AvG5Zh-40" value="Memory&lt;br&gt;Stores Previous&amp;nbsp; Conversation" style="endArrow=classic;html=1;exitX=0.322;exitY=0.025;exitDx=0;exitDy=0;exitPerimeter=0;entryX=0.627;entryY=0.037;entryDx=0;entryDy=0;entryPerimeter=0;curved=1;strokeWidth=6;" edge="1" parent="1" source="snBD3ZfTyoc-V8AvG5Zh-39" target="snBD3ZfTyoc-V8AvG5Zh-39">
          <mxGeometry x="-0.0008" width="50" height="50" relative="1" as="geometry">
            <mxPoint x="690" y="400" as="sourcePoint" />
            <mxPoint x="796" y="380" as="targetPoint" />
            <Array as="points">
              <mxPoint x="686" y="370" />
              <mxPoint x="686" y="350" />
              <mxPoint x="696" y="330" />
              <mxPoint x="716" y="320" />
              <mxPoint x="736" y="330" />
              <mxPoint x="746" y="350" />
            </Array>
            <mxPoint as="offset" />
          </mxGeometry>
        </mxCell>
        <mxCell id="snBD3ZfTyoc-V8AvG5Zh-41" value="" style="endArrow=classic;html=1;exitX=0.322;exitY=0.025;exitDx=0;exitDy=0;exitPerimeter=0;entryX=0.627;entryY=0.037;entryDx=0;entryDy=0;entryPerimeter=0;curved=1;strokeWidth=6;" edge="1" parent="1">
          <mxGeometry x="-0.2183" y="219" width="50" height="50" relative="1" as="geometry">
            <mxPoint x="406" y="469" as="sourcePoint" />
            <mxPoint x="433" y="470" as="targetPoint" />
            <Array as="points">
              <mxPoint x="386" y="449" />
              <mxPoint x="386" y="429" />
              <mxPoint x="396" y="409" />
              <mxPoint x="436" y="409" />
              <mxPoint x="446" y="429" />
            </Array>
            <mxPoint x="-25" y="15" as="offset" />
          </mxGeometry>
        </mxCell>
        <mxCell id="snBD3ZfTyoc-V8AvG5Zh-42" value="Memory&lt;br style=&quot;border-color: var(--border-color);&quot;&gt;Stores Previous Queries" style="edgeLabel;html=1;align=center;verticalAlign=middle;resizable=0;points=[];" vertex="1" connectable="0" parent="snBD3ZfTyoc-V8AvG5Zh-41">
          <mxGeometry x="0.0201" y="-2" relative="1" as="geometry">
            <mxPoint as="offset" />
          </mxGeometry>
        </mxCell>
        <mxCell id="snBD3ZfTyoc-V8AvG5Zh-43" value="" style="shape=flexArrow;endArrow=classic;html=1;rounded=0;exitX=1;exitY=0.5;exitDx=0;exitDy=0;exitPerimeter=0;fillColor=#60a917;strokeColor=#2D7600;" edge="1" parent="1" source="snBD3ZfTyoc-V8AvG5Zh-39">
          <mxGeometry width="50" height="50" relative="1" as="geometry">
            <mxPoint x="796" y="446.57" as="sourcePoint" />
            <mxPoint x="866" y="446.57" as="targetPoint" />
          </mxGeometry>
        </mxCell>
        <mxCell id="snBD3ZfTyoc-V8AvG5Zh-44" value="Answer" style="edgeLabel;html=1;align=center;verticalAlign=middle;resizable=0;points=[];" vertex="1" connectable="0" parent="snBD3ZfTyoc-V8AvG5Zh-43">
          <mxGeometry x="-0.4199" relative="1" as="geometry">
            <mxPoint x="20" as="offset" />
          </mxGeometry>
        </mxCell>
        <mxCell id="snBD3ZfTyoc-V8AvG5Zh-45" value="Answer" style="whiteSpace=wrap;html=1;shape=mxgraph.basic.roundRectCallout;dx=30;dy=15;size=5;boundedLbl=1;" vertex="1" parent="1">
          <mxGeometry x="856" y="410" width="80" height="40" as="geometry" />
        </mxCell>
        <mxCell id="snBD3ZfTyoc-V8AvG5Zh-46" value="Users" style="shape=image;verticalLabelPosition=bottom;labelBackgroundColor=default;verticalAlign=top;aspect=fixed;imageAspect=0;image=https://simpleicon.com/wp-content/uploads/users.png;fontStyle=0" vertex="1" parent="1">
          <mxGeometry x="540" y="190" width="50" height="50" as="geometry" />
        </mxCell>
        <mxCell id="snBD3ZfTyoc-V8AvG5Zh-47" value="&lt;span style=&quot;color: rgb(0, 0, 0); font-family: Helvetica; font-size: 14px; font-style: normal; font-variant-ligatures: normal; font-variant-caps: normal; letter-spacing: normal; orphans: 2; text-align: center; text-indent: 0px; text-transform: none; widows: 2; word-spacing: 0px; -webkit-text-stroke-width: 0px; background-color: rgb(255, 255, 255); text-decoration-thickness: initial; text-decoration-style: initial; text-decoration-color: initial; float: none; display: inline !important;&quot;&gt;msmerco-bert-base-v5&lt;/span&gt;" style="text;whiteSpace=wrap;html=1;fontStyle=1;fontSize=14;" vertex="1" parent="1">
          <mxGeometry x="25" y="414" width="90" height="40" as="geometry" />
        </mxCell>
        <mxCell id="snBD3ZfTyoc-V8AvG5Zh-48" value="&lt;span style=&quot;color: rgb(0, 0, 0); font-family: Helvetica; font-size: 14px; font-style: normal; font-variant-ligatures: normal; font-variant-caps: normal; letter-spacing: normal; orphans: 2; text-align: center; text-indent: 0px; text-transform: none; widows: 2; word-spacing: 0px; -webkit-text-stroke-width: 0px; background-color: rgb(255, 255, 255); text-decoration-thickness: initial; text-decoration-style: initial; text-decoration-color: initial; float: none; display: inline !important;&quot;&gt;splade-&lt;br style=&quot;font-size: 14px;&quot;&gt;cocodenser-&lt;br style=&quot;font-size: 14px;&quot;&gt;ensembledstil&lt;/span&gt;" style="text;whiteSpace=wrap;html=1;fontStyle=1;fontSize=14;" vertex="1" parent="1">
          <mxGeometry x="147.5" y="409" width="85" height="50" as="geometry" />
        </mxCell>
        <mxCell id="snBD3ZfTyoc-V8AvG5Zh-49" value="Context Search&amp;nbsp;&lt;span style=&quot;color: rgb(0, 0, 0); font-family: Helvetica; font-size: 17px; font-style: normal; font-variant-ligatures: normal; font-variant-caps: normal; font-weight: 400; letter-spacing: normal; orphans: 2; text-align: center; text-indent: 0px; text-transform: none; widows: 2; word-spacing: 0px; -webkit-text-stroke-width: 0px; text-decoration-thickness: initial; text-decoration-style: initial; text-decoration-color: initial; float: none; display: inline !important;&quot;&gt;Pipeline&lt;/span&gt;" style="text;whiteSpace=wrap;html=1;fontSize=17;" vertex="1" parent="1">
          <mxGeometry x="372" y="670" width="190" height="40" as="geometry" />
        </mxCell>
        <mxCell id="snBD3ZfTyoc-V8AvG5Zh-50" value="Q/A&amp;nbsp;&lt;span style=&quot;color: rgb(0, 0, 0); font-family: Helvetica; font-size: 17px; font-style: normal; font-variant-ligatures: normal; font-variant-caps: normal; font-weight: 400; letter-spacing: normal; orphans: 2; text-align: center; text-indent: 0px; text-transform: none; widows: 2; word-spacing: 0px; -webkit-text-stroke-width: 0px; text-decoration-thickness: initial; text-decoration-style: initial; text-decoration-color: initial; float: none; display: inline !important;&quot;&gt;Pipeline&lt;/span&gt;" style="text;whiteSpace=wrap;html=1;fontSize=17;" vertex="1" parent="1">
          <mxGeometry x="680" y="590" width="100" height="40" as="geometry" />
        </mxCell>
      </root>
    </mxGraphModel>
  </diagram>
</mxfile>
